<?xml version="1.0" standalone="no"?>
<!DOCTYPE svg PUBLIC "-//W3C//DTD SVG 20010904//EN"
 "http://www.w3.org/TR/2001/REC-SVG-20010904/DTD/svg10.dtd">
<svg version="1.0" xmlns="http://www.w3.org/2000/svg"
 width="1022.000000pt" height="682.000000pt" viewBox="0 0 1022.000000 682.000000"
 preserveAspectRatio="xMidYMid meet">

<g transform="translate(0.000000,682.000000) scale(0.100000,-0.100000)"
fill="#000000" stroke="none">
<path d="M0 3410 l0 -3410 5110 0 5110 0 0 219 0 219 -82 8 c-46 4 -90 7 -98
6 -8 0 -3 4 13 11 15 6 27 14 27 17 0 4 -39 5 -87 4 -49 -2 -77 0 -63 3 50 10
44 23 -11 24 -39 0 -49 3 -34 9 14 6 15 9 5 10 -27 2 22 17 83 24 33 4 55 12
51 17 -3 6 4 7 18 4 12 -3 46 1 73 10 28 8 62 15 78 15 17 0 27 5 27 15 0 10
-8 13 -27 10 -36 -6 -239 -35 -246 -35 -4 0 -4 6 -1 13 3 9 55 22 139 37 74
14 135 28 135 33 0 9 -53 7 -294 -9 -64 -5 -87 -3 -82 5 5 7 -1 11 -16 11 -13
0 -34 3 -48 6 -16 4 -21 3 -12 -3 7 -6 -7 -9 -40 -9 -29 0 -43 2 -30 4 12 2
22 9 22 15 0 12 156 47 210 47 14 0 32 5 40 10 11 7 7 9 -15 5 -165 -26 -255
-32 -255 -16 0 5 14 11 30 15 40 7 39 24 -1 22 -18 0 -34 4 -36 10 -3 10 106
33 286 59 51 8 95 16 98 18 2 3 -38 3 -89 0 -51 -2 -94 -8 -96 -12 -1 -5 -20
-7 -42 -5 -22 2 -42 -1 -45 -6 -3 -6 -11 -10 -16 -10 -6 0 -7 5 -4 10 8 12 -1
13 -42 1 -18 -5 -35 -6 -37 -2 -3 4 41 15 97 24 56 10 136 24 177 33 41 8 105
17 143 21 87 7 94 18 12 18 -35 0 -61 -3 -58 -8 2 -4 -11 -7 -29 -7 -18 0 -50
-5 -70 -10 -24 -7 -49 -7 -70 -1 -25 7 -28 9 -10 10 12 1 22 6 22 11 0 6 19
10 43 11 35 1 38 2 17 8 -30 9 -130 7 -182 -4 -33 -6 -38 -5 -38 12 0 17 9 19
93 21 50 1 106 6 122 11 22 7 12 8 -40 5 l-70 -4 50 14 50 14 -55 -5 c-30 -3
-57 -7 -59 -9 -2 -2 -10 1 -17 7 -9 7 -19 7 -34 -1 -11 -6 -30 -8 -40 -5 -11
4 -52 6 -90 6 -39 0 -70 1 -70 3 0 2 30 9 68 16 143 25 172 32 172 41 0 6 -8
8 -17 5 -49 -13 -103 -17 -103 -7 0 6 8 11 18 11 9 0 24 5 32 11 11 7 -11 9
-76 7 -62 -2 -95 1 -103 9 -18 19 -13 23 19 17 17 -4 36 -1 44 5 8 6 33 18 57
26 l44 14 -80 -4 -80 -4 80 13 c48 8 68 14 50 16 -25 2 -23 3 15 10 49 9 253
36 338 45 155 17 62 31 -183 28 -109 -2 -116 0 -62 11 15 4 27 11 27 16 0 5
-8 7 -17 3 -10 -3 -15 -3 -11 1 3 4 21 10 40 12 18 3 39 7 47 10 11 4 12 2 1
-11 -12 -15 -8 -15 41 -9 65 8 82 18 22 12 -24 -2 -43 -1 -43 2 0 6 196 30
248 30 23 0 32 5 32 16 0 13 -7 15 -37 10 -69 -11 -398 -46 -428 -45 -40 1
-22 6 49 14 69 8 58 25 -13 21 -26 -2 -36 -2 -23 1 50 10 5 23 -81 23 -56 0
-87 4 -78 9 11 7 11 10 0 15 -8 3 -4 4 9 2 15 -3 22 1 22 11 0 9 8 14 23 12
12 -1 29 1 37 4 8 3 24 8 35 11 11 2 -7 2 -40 0 -41 -4 -55 -2 -46 4 12 8 11
11 -5 15 -10 2 4 3 31 1 32 -2 41 -1 26 4 -17 5 11 11 90 20 413 45 444 50
427 67 -3 4 -15 2 -26 -4 -26 -14 -86 -14 -136 0 -27 7 -77 7 -174 0 -124 -10
-180 -9 -121 2 126 24 166 30 247 34 50 3 92 9 92 12 0 8 -109 4 -214 -9 -77
-10 -194 -12 -148 -3 12 2 22 9 22 14 0 5 19 9 43 10 33 1 37 2 17 8 -23 6 15
17 155 45 35 7 -206 5 -292 -2 -86 -8 -110 0 -45 14 l37 8 -35 6 c-28 4 -17 7
48 13 120 10 139 26 32 28 l-85 2 60 8 c33 5 104 13 158 18 54 5 101 12 105
15 8 9 -143 7 -170 -2 -13 -4 -41 -5 -63 -2 -36 5 -38 7 -20 16 11 7 52 14 90
18 39 4 120 12 180 19 l110 12 -85 5 c-47 3 -94 1 -105 -5 -26 -12 -289 -8
-293 5 -2 6 -21 10 -43 10 -21 0 -39 4 -39 8 0 11 45 32 68 32 9 0 24 5 32 11
11 7 4 8 -25 4 -67 -8 7 11 100 26 67 11 75 14 50 20 -28 6 -28 7 -5 9 21 1
19 4 -15 15 l-40 13 41 1 c22 1 44 5 50 10 5 6 29 11 54 14 26 2 5 5 -50 6
-87 3 -183 17 -136 20 11 0 16 4 12 9 -4 4 119 16 273 27 252 19 304 26 290
39 -2 2 -69 0 -149 -4 -142 -9 -350 -13 -380 -9 -8 1 14 5 50 9 59 6 53 7 -55
10 -67 2 -102 6 -80 9 l40 5 -45 6 -45 7 55 2 c30 1 82 8 115 15 l60 12 -75 9
c-57 6 -69 10 -50 15 14 5 43 9 65 10 l40 2 -35 8 c-19 5 -48 12 -65 17 l-30
10 35 6 c19 3 111 12 204 18 126 10 162 15 140 21 -28 9 -180 4 -219 -7 -11
-3 -33 -1 -50 3 -30 9 -29 9 15 15 25 4 95 13 157 22 61 8 141 15 177 15 41 0
66 4 66 11 0 11 -108 7 -160 -5 -14 -4 -38 -2 -55 3 -27 8 -25 9 25 11 30 1
49 4 43 7 -7 2 -13 11 -13 19 0 10 -11 14 -37 12 -21 -1 -76 -1 -123 1 l-85 3
45 12 c25 7 79 12 120 11 73 -2 73 -2 15 4 -43 5 -53 8 -35 12 14 4 -12 7 -57
8 -48 0 -83 5 -83 11 0 6 -42 10 -102 11 -93 1 -98 2 -53 10 28 5 120 15 205
23 l155 13 -122 2 c-75 0 -123 5 -123 11 0 6 19 11 43 11 l42 2 -50 7 c-27 5
-84 9 -125 10 -54 1 -68 4 -50 10 l25 8 -25 2 c-14 2 -2 6 28 11 28 5 76 13
105 18 l52 9 -85 2 c-49 2 -68 5 -45 7 22 3 42 9 45 14 5 8 402 39 505 39 30
0 36 3 25 10 -10 6 -11 10 -2 10 6 0 12 4 12 9 0 4 -112 8 -250 7 -236 -1
-282 5 -138 17 35 3 87 6 116 6 31 1 52 5 52 12 0 8 -35 10 -120 7 -66 -2
-120 0 -120 4 0 4 9 8 20 8 13 0 20 7 20 19 0 15 10 19 67 24 37 3 69 10 71
16 2 7 49 11 137 11 89 0 136 4 141 11 5 9 -88 10 -357 6 -200 -3 -348 -2
-329 2 33 8 32 9 -20 11 -51 3 -50 3 29 11 47 4 115 18 152 30 68 22 68 22 47
41 -12 10 -19 21 -16 24 4 3 37 9 75 13 l68 7 -115 9 c-85 7 -106 11 -80 16
l35 6 -35 3 c-69 4 58 30 155 31 50 0 101 5 115 9 25 8 25 8 -5 11 -42 3 102
16 203 18 47 0 82 5 82 11 0 6 -37 10 -90 10 -53 0 -90 4 -90 10 0 6 -75 11
-202 12 -141 1 -177 3 -118 7 69 5 79 7 51 14 -18 4 -64 7 -102 7 -38 0 -69 4
-69 8 0 16 102 32 213 34 l112 1 -112 6 c-69 4 -117 11 -125 19 -10 9 -4 12
27 12 36 0 38 1 19 15 -10 8 -31 15 -46 15 -15 0 -29 4 -32 9 -3 5 63 12 152
15 86 3 211 10 277 15 l120 9 -190 0 c-104 1 -215 5 -245 10 -54 8 -52 8 60
16 63 4 162 8 219 8 58 1 116 4 130 9 16 4 -32 8 -116 8 -88 1 -143 5 -143 11
0 6 17 10 38 11 20 1 48 4 62 8 24 7 24 7 -9 14 -18 4 -61 7 -95 8 -33 0 -83
4 -111 9 -39 6 -19 8 95 11 80 1 117 4 83 6 -81 5 -82 23 -1 23 34 0 59 2 57
4 -5 4 -279 19 -321 18 -15 -1 -30 3 -33 8 -4 6 -25 10 -48 11 -82 2 3 17 108
19 55 1 127 6 160 10 51 6 39 7 -75 10 -102 2 -125 4 -95 11 22 4 65 9 95 10
42 2 33 4 -40 9 -65 4 -12 7 168 8 167 1 262 6 262 12 0 6 -83 10 -230 10
-135 0 -230 4 -230 9 0 5 8 12 18 14 9 3 0 3 -20 2 -21 -2 -38 1 -38 6 0 5
-10 9 -22 10 -33 1 -11 7 55 14 31 4 55 10 52 15 -3 4 -41 11 -85 15 -53 5
-80 11 -80 20 0 12 119 25 232 25 36 0 48 4 48 15 0 13 23 15 150 15 127 0
150 2 150 15 0 16 -28 19 -185 17 -56 -1 -73 1 -55 7 17 6 -11 10 -90 11 -63
1 -137 5 -165 10 -44 6 -37 8 55 10 108 3 100 6 -57 16 -51 3 -93 10 -93 14 0
4 9 6 21 3 12 -4 25 0 30 8 6 11 38 14 146 13 112 -1 125 0 68 6 -38 4 -103 8
-142 9 -58 1 -73 4 -73 16 0 11 12 15 43 16 l42 1 -45 13 c-36 10 -40 14 -20
16 16 1 9 4 -20 9 -25 4 84 7 243 7 158 0 290 3 294 6 3 4 -45 8 -108 9 -167
2 -186 3 -274 13 l-80 9 55 8 c30 4 130 6 222 4 92 -1 173 1 180 5 8 6 -2 9
-27 10 -190 4 -353 19 -207 19 35 0 62 4 62 10 0 6 -9 10 -20 10 -11 0 -20 5
-20 10 0 6 -24 10 -52 11 -59 1 -166 16 -130 18 13 0 22 7 22 16 0 14 15 15
103 11 76 -4 89 -3 52 4 -27 4 -74 9 -102 9 -29 1 -53 6 -53 11 0 6 -35 10
-82 11 -57 1 -75 4 -58 9 18 6 7 9 -45 10 l-70 3 55 8 c30 4 93 5 140 3 47 -3
99 -1 115 4 25 8 16 10 -60 16 -120 9 -133 13 -55 16 l65 2 -75 13 c-41 7 -97
16 -125 21 l-50 7 50 13 c27 7 55 20 61 29 11 14 30 15 175 5 209 -13 339 -13
339 0 0 6 -24 10 -54 10 -74 0 -147 11 -140 21 3 5 -10 10 -28 11 -86 4 -221
24 -180 27 12 0 22 5 22 10 0 4 19 13 43 18 l42 11 -65 2 c-61 3 -62 3 -25 10
35 7 33 7 -15 4 -34 -2 -64 2 -80 11 -14 8 -47 15 -75 16 l-50 1 40 8 c22 5
73 6 113 3 62 -5 72 -4 72 11 0 13 -11 16 -52 18 l-53 1 55 7 c42 5 47 7 20 8
-19 1 -60 9 -90 17 -30 8 -68 15 -85 16 -22 1 -24 3 -10 6 11 3 29 12 40 19
11 8 47 15 80 15 53 2 55 3 21 8 -22 3 -41 12 -44 20 -4 13 88 12 396 -5 89
-5 102 -4 102 10 0 14 -13 15 -92 11 -85 -4 -88 -3 -34 5 80 13 83 21 5 15
-44 -3 -56 -2 -39 4 20 7 12 9 -37 10 -35 1 -63 5 -63 11 0 5 -12 7 -27 4 -16
-2 -62 -1 -103 4 -71 8 -68 9 65 10 77 0 142 -3 145 -7 3 -4 46 -5 95 -2 l90
6 -75 6 c-41 3 -128 10 -192 14 -90 6 -118 11 -118 22 0 11 4 11 20 3 14 -7
20 -7 20 0 0 5 -6 11 -12 11 -7 1 5 5 27 10 22 5 71 6 110 3 62 -6 68 -5 57 9
-9 10 -36 17 -80 20 -37 2 -103 9 -147 16 -44 6 -107 15 -140 20 l-60 9 65 2
c64 3 65 3 20 10 -30 5 -13 6 54 5 136 -3 178 9 66 19 -47 4 -103 12 -125 17
-41 9 -18 8 278 -7 86 -5 127 -4 127 3 0 7 -45 13 -112 17 -243 13 -264 22
-55 23 109 1 201 4 204 7 4 3 -19 6 -50 6 -31 0 -58 4 -61 9 -7 10 -101 24
-173 25 -28 1 -46 4 -40 8 7 4 -15 8 -48 9 -33 1 -52 3 -43 6 26 7 22 33 -4
34 -13 0 -1 7 27 14 47 13 298 19 319 7 19 -11 136 -7 136 4 0 7 -56 16 -152
23 -174 15 -209 25 -117 35 35 3 68 11 73 16 6 6 46 10 91 10 50 0 86 5 93 12
9 9 12 203 12 810 l0 798 -5110 0 -5110 0 0 -3410z m5823 1787 c121 -32 303
-125 399 -203 246 -202 398 -450 469 -769 30 -130 37 -398 15 -520 -26 -138
-144 -481 -160 -464 -3 2 15 90 39 194 68 293 79 368 72 514 -7 147 -27 228
-91 365 -162 346 -444 584 -773 652 -108 23 -328 15 -438 -15 -110 -30 -247
-99 -343 -171 -299 -225 -479 -625 -459 -1016 14 -262 96 -509 234 -703 l45
-63 232 230 231 229 44 -5 44 -4 -252 -251 c-138 -138 -251 -252 -251 -254 0
-21 65 37 275 247 l250 250 45 0 45 0 -280 -280 c-154 -154 -273 -280 -265
-280 8 0 141 126 295 279 l280 279 37 -6 36 -7 -289 -293 c-159 -162 -289
-299 -289 -305 0 -7 136 124 303 291 301 301 302 302 345 302 23 0 42 -4 42
-10 0 -5 -3 -10 -8 -10 -4 0 -13 -9 -20 -21 -10 -16 -10 -24 -1 -35 9 -11 26
0 97 66 76 71 89 80 123 80 22 0 39 -3 39 -7 0 -4 -46 -54 -102 -110 -56 -56
-99 -105 -96 -108 3 -3 57 44 121 105 114 109 115 110 163 110 l48 0 -144
-138 c-79 -76 -140 -141 -134 -144 5 -4 75 58 154 136 l145 143 44 -5 44 -4
-166 -165 c-92 -91 -165 -169 -162 -172 2 -4 84 71 182 166 171 166 180 172
219 173 40 0 42 -1 160 -142 65 -78 137 -162 158 -186 32 -35 38 -47 29 -60
-23 -37 -49 -18 -168 123 -65 77 -132 156 -150 176 l-33 37 -173 -174 c-130
-130 -170 -176 -162 -186 5 -7 58 -72 116 -144 l107 -132 -37 -7 c-24 -4 -40
-2 -48 7 -7 7 -106 128 -220 268 -114 140 -211 256 -216 258 -13 5 -524 -518
-523 -534 2 -19 2 -19 -74 27 -361 219 -599 636 -619 1084 -12 256 42 506 154
715 72 134 119 198 223 301 146 146 292 236 467 289 113 34 158 39 323 36 128
-3 172 -8 253 -29z m-55 -402 l52 -36 0 -69 c0 -76 0 -77 61 -58 37 11 42 9
94 -27 l55 -37 0 -244 0 -243 166 -3 166 -3 29 -33 c26 -29 29 -40 29 -97 0
-63 -15 -115 -32 -115 -5 0 0 -12 11 -26 17 -22 21 -41 21 -106 0 -76 -2 -81
-30 -108 -38 -36 -68 -40 -307 -40 l-203 0 0 510 c0 479 -1 510 -17 510 -10
-1 -47 -9 -83 -19 l-65 -18 -3 -522 c-2 -513 -2 -521 -22 -521 -20 0 -20 8
-20 633 0 349 -2 636 -6 639 -3 3 -41 -4 -85 -15 l-79 -21 0 -339 0 -338 30
-26 c56 -47 75 -97 75 -198 0 -74 -4 -97 -23 -132 -28 -54 -66 -90 -122 -116
-40 -19 -68 -21 -267 -25 l-223 -4 0 276 0 276 75 0 75 0 0 138 1 137 55 33
54 34 98 -33 c53 -17 103 -34 110 -37 9 -3 12 40 12 197 l0 201 28 7 c109 27
209 51 222 52 8 1 39 -15 68 -34z m-208 -165 c0 -27 -4 -50 -10 -50 -5 0 -10
23 -10 50 0 28 5 50 10 50 6 0 10 -22 10 -50z m4113 43 c-7 -2 -19 -2 -25 0
-7 3 -2 5 12 5 14 0 19 -2 13 -5z m-4053 -47 c0 -25 -4 -47 -9 -50 -10 -6 -24
71 -16 85 14 22 25 6 25 -35z m3573 17 c-7 -2 -19 -2 -25 0 -7 3 -2 5 12 5 14
0 19 -2 13 -5z m-240 -40 c-7 -2 -19 -2 -25 0 -7 3 -2 5 12 5 14 0 19 -2 13
-5z m75 -30 c-15 -2 -42 -2 -60 0 -18 2 -6 4 27 4 33 0 48 -2 33 -4z m85 -10
c-7 -2 -19 -2 -25 0 -7 3 -2 5 12 5 14 0 19 -2 13 -5z m-3553 -48 c0 -8 0 -18
1 -22 0 -4 -4 -9 -10 -11 -6 -2 -11 8 -11 22 0 14 5 26 10 26 6 0 10 -7 10
-15z m60 -10 c0 -26 -14 -33 -25 -15 -9 14 1 40 15 40 5 0 10 -11 10 -25z
m160 -60 c0 -30 -4 -55 -10 -55 -11 0 -14 93 -3 103 12 12 13 8 13 -48z m60
-6 c0 -66 -24 -62 -28 4 -2 37 0 47 12 47 12 0 16 -12 16 -51z m-280 -39 c0
-27 -4 -50 -10 -50 -5 0 -10 23 -10 50 0 28 5 50 10 50 6 0 10 -22 10 -50z
m60 0 c0 -52 -19 -71 -22 -22 0 15 -2 34 -3 42 -2 19 4 30 16 30 5 0 9 -22 9
-50z m3483 3 c-7 -2 -19 -2 -25 0 -7 3 -2 5 12 5 14 0 19 -2 13 -5z m92 -43
c4 -6 -9 -10 -32 -10 -28 0 -34 3 -23 10 20 13 47 13 55 0z m-3415 -40 c0 -22
-4 -40 -10 -40 -5 0 -10 18 -10 40 0 22 5 40 10 40 6 0 10 -18 10 -40z m60 0
c0 -22 -4 -40 -9 -40 -11 0 -21 49 -14 67 10 27 23 12 23 -27z m-280 -40 c0
-22 -4 -40 -10 -40 -5 0 -10 18 -10 40 0 22 5 40 10 40 6 0 10 -18 10 -40z
m60 0 c0 -22 -4 -40 -10 -40 -5 0 -10 18 -10 40 0 22 5 40 10 40 6 0 10 -18
10 -40z m3455 9 c6 -4 41 -10 79 -13 37 -2 71 -7 74 -10 7 -8 -157 -8 -251 0
-79 7 -106 23 -39 25 20 0 46 4 57 9 21 8 63 3 80 -11z m-8268 -37 c12 -7
-124 -8 -464 -4 -79 1 -143 5 -143 10 0 9 590 3 607 -6z m73 -6 c0 -2 -11 -6
-25 -8 -13 -3 -22 -1 -19 3 5 9 44 13 44 5z m235 -1 c-5 -2 -53 -5 -105 -8
-52 -2 -84 -1 -70 4 24 7 196 11 175 4z m1118 -2 c-7 -2 -19 -2 -25 0 -7 3 -2
5 12 5 14 0 19 -2 13 -5z m3547 -44 c0 -31 -4 -48 -10 -44 -5 3 -10 26 -10 51
0 24 5 44 10 44 6 0 10 -23 10 -51z m60 7 c0 -25 -4 -47 -9 -50 -9 -6 -20 81
-12 90 13 13 21 -1 21 -40z m-4632 27 c-10 -2 -26 -2 -35 0 -10 3 -2 5 17 5
19 0 27 -2 18 -5z m69 1 c-3 -3 -12 -4 -19 -1 -8 3 -5 6 6 6 11 1 17 -2 13 -5z
m-954 -11 c-24 -2 -62 -2 -86 0 -23 2 -4 4 43 4 47 0 66 -2 43 -4z m260 0
c-13 -2 -33 -2 -45 0 -13 2 -3 4 22 4 25 0 35 -2 23 -4z m576 -20 c3 -2 -42
-3 -100 -1 -57 1 -93 5 -79 8 24 7 171 1 179 -7z m-246 0 c-7 -2 -19 -2 -25 0
-7 3 -2 5 12 5 14 0 19 -2 13 -5z m4647 -43 c0 -27 -4 -50 -10 -50 -5 0 -10
23 -10 50 0 28 5 50 10 50 6 0 10 -22 10 -50z m60 0 c0 -27 -4 -50 -10 -50 -5
0 -10 23 -10 50 0 28 5 50 10 50 6 0 10 -22 10 -50z m-4117 33 c-13 -2 -33 -2
-45 0 -13 2 -3 4 22 4 25 0 35 -2 23 -4z m810 0 c-29 -2 -77 -2 -105 0 -29 2
-6 3 52 3 58 0 81 -1 53 -3z m240 0 c-7 -2 -19 -2 -25 0 -7 3 -2 5 12 5 14 0
19 -2 13 -5z m3227 -99 c0 -14 -4 -23 -10 -19 -5 3 -10 15 -10 26 0 10 5 19
10 19 6 0 10 -12 10 -26z m60 7 c0 -11 -4 -23 -10 -26 -6 -4 -10 5 -10 19 0
14 5 26 10 26 6 0 10 -9 10 -19z m3115 -1 c31 -5 -5 -6 -90 -2 -77 2 -142 6
-144 8 -8 7 184 2 234 -6z m-242 -17 c-7 -2 -19 -2 -25 0 -7 3 -2 5 12 5 14 0
19 -2 13 -5z m442 -16 c37 0 43 -1 25 -7 l-25 -7 25 -5 c49 -10 -52 -8 -165 3
-60 6 -125 11 -142 10 -18 0 -33 4 -33 9 0 5 57 6 133 3 72 -3 155 -6 182 -6z
m-3375 -87 c0 -27 -4 -50 -10 -50 -5 0 -10 23 -10 50 0 28 5 50 10 50 6 0 10
-22 10 -50z m60 -6 c0 -24 -4 -44 -10 -44 -5 0 -10 23 -10 51 0 31 4 48 10 44
6 -3 10 -26 10 -51z m3240 29 c-107 -7 -238 -7 -233 0 2 4 66 6 141 5 75 -1
117 -3 92 -5z m-97 -30 c-13 -2 -33 -2 -45 0 -13 2 -3 4 22 4 25 0 35 -2 23
-4z m-110 -50 c-7 -2 -19 -2 -25 0 -7 3 -2 5 12 5 14 0 19 -2 13 -5z m72 -3
c-28 -12 50 -12 135 -1 36 5 83 6 105 1 l40 -8 -34 -1 c-33 -1 -34 -2 -15 -16
18 -13 16 -14 -21 -16 -38 -2 -81 -1 -256 5 -103 4 -142 25 -46 26 38 0 67 4
67 10 0 6 10 10 23 9 21 0 21 -1 2 -9z m675 -14 c0 -3 -4 -8 -10 -11 -5 -3
-10 -1 -10 4 0 6 5 11 10 11 6 0 10 -2 10 -4z m-335 -16 c-3 -5 -24 -10 -46
-10 -21 0 -39 5 -39 10 0 6 21 10 46 10 27 0 43 -4 39 -10z m-3505 -30 c0 -11
-4 -20 -10 -20 -5 0 -10 9 -10 20 0 11 5 20 10 20 6 0 10 -9 10 -20z m60 1 c0
-11 -4 -23 -10 -26 -6 -4 -10 5 -10 19 0 14 5 26 10 26 6 0 10 -9 10 -19z
m3018 9 c17 -5 -17 -8 -93 -8 -66 0 -131 4 -145 8 -33 11 202 11 238 0z
m-3078 -130 c0 -27 -4 -50 -10 -50 -5 0 -10 23 -10 50 0 28 5 50 10 50 6 0 10
-22 10 -50z m60 -6 c0 -32 -4 -44 -12 -42 -14 5 -23 61 -14 85 11 27 26 2 26
-43z m3078 -81 c-10 -2 -28 -2 -40 0 -13 2 -5 4 17 4 22 1 32 -1 23 -4z m80
-4 c-18 -7 -33 -7 -45 0 -14 8 -9 10 27 10 42 -1 43 -1 18 -10z m177 1 c-11
-5 -49 -8 -85 -8 -58 1 -61 2 -25 8 60 11 135 11 110 0z m-7392 -47 c-13 -2
-33 -2 -45 0 -13 2 -3 4 22 4 25 0 35 -2 23 -4z m7357 -33 c0 -6 31 -10 73
-10 43 0 80 -5 90 -12 14 -11 -35 -13 -257 -13 -151 0 -278 3 -282 8 -4 4 3 7
17 7 13 0 80 3 149 7 92 5 114 9 85 14 -31 5 -21 6 43 8 49 0 82 -3 82 -9z
m-120 -199 c-14 -3 -115 -4 -225 -1 l-200 6 225 1 c124 1 214 -2 200 -6z
m-300 -25 c0 -9 -7 -12 -20 -9 -11 3 -20 9 -20 14 0 5 9 9 20 9 11 0 20 -6 20
-14z m160 5 c0 -5 67 -7 160 -4 121 5 160 3 160 -6 0 -9 -50 -11 -202 -9 -112
1 -193 4 -180 6 12 2 22 8 22 13 0 5 9 9 20 9 11 0 20 -4 20 -9z m-6577 -68
c-13 -2 -33 -2 -45 0 -13 2 -3 4 22 4 25 0 35 -2 23 -4z m130 0 c-7 -2 -19 -2
-25 0 -7 3 -2 5 12 5 14 0 19 -2 13 -5z m6766 3 c-2 -2 -85 -6 -184 -9 -99 -3
-160 -2 -135 2 46 8 327 14 319 7z m-102 -33 c-20 -2 -52 -2 -70 0 -17 2 0 4
38 4 39 0 53 -2 32 -4z m-8021 -10 c-2 -3 -76 -6 -163 -8 -87 -2 -239 -5 -338
-8 -118 -4 -146 -3 -83 2 54 4 100 10 103 12 2 3 113 5 245 6 133 1 239 -1
236 -4z m357 0 c-7 -2 -19 -2 -25 0 -7 3 -2 5 12 5 14 0 19 -2 13 -5z m4805
-30 c-3 -36 -5 -38 -36 -36 -41 1 -41 1 -35 41 5 29 9 32 40 32 33 0 34 -1 31
-37z m82 -3 c0 -39 -1 -40 -35 -40 -33 0 -35 2 -35 33 0 41 5 47 42 47 26 0
28 -3 28 -40z m-5097 23 c-13 -2 -33 -2 -45 0 -13 2 -3 4 22 4 25 0 35 -2 23
-4z m1150 0 c-40 -2 -106 -2 -145 0 -40 1 -8 3 72 3 80 0 112 -2 73 -3z m180
0 c-7 -2 -19 -2 -25 0 -7 3 -2 5 12 5 14 0 19 -2 13 -5z m-2250 -10 c-13 -2
-33 -2 -45 0 -13 2 -3 4 22 4 25 0 35 -2 23 -4z m410 -10 c-7 -2 -19 -2 -25 0
-7 3 -2 5 12 5 14 0 19 -2 13 -5z m807 -3 c0 -5 -9 -10 -20 -10 -11 0 -20 5
-20 10 0 6 9 10 20 10 11 0 20 -4 20 -10z m-447 -7 c-29 -2 -77 -2 -105 0 -29
2 -6 3 52 3 58 0 81 -1 53 -3z m8107 -2 c-24 -7 -24 -7 9 -14 18 -4 48 -8 65
-8 17 -1 0 -6 -39 -11 -92 -11 -407 -9 -419 3 -6 5 9 10 40 10 34 1 42 4 24 8
-14 3 22 8 80 12 157 8 269 8 240 0z m-8847 -8 c-18 -2 -48 -2 -65 0 -18 2 -4
4 32 4 36 0 50 -2 33 -4z m1050 0 c-13 -2 -33 -2 -45 0 -13 2 -3 4 22 4 25 0
35 -2 23 -4z m4221 -40 c-4 -21 -7 -39 -8 -39 0 -1 -15 0 -31 3 -28 4 -30 7
-27 39 4 31 7 34 39 34 34 0 34 0 27 -37z m86 -3 c0 -39 -1 -40 -35 -40 -34 0
-35 1 -35 40 0 39 1 40 35 40 34 0 35 -1 35 -40z m3063 23 c-13 -2 -35 -2 -50
0 -16 2 -5 4 22 4 28 0 40 -2 28 -4z m-2523 -53 c0 -39 -1 -40 -35 -40 -34 0
-35 1 -35 40 0 39 1 40 35 40 34 0 35 -1 35 -40z m90 -5 c0 -33 -2 -35 -35
-35 -33 0 -35 2 -35 35 0 33 2 35 35 35 33 0 35 -2 35 -35z m2560 25 c0 -6
-53 -9 -142 -8 -113 1 -129 3 -78 8 108 11 220 11 220 0z m-3294 -50 c9 0 14
-11 14 -35 0 -33 -2 -35 -35 -35 -33 0 -35 2 -35 33 0 38 8 50 28 42 7 -3 20
-5 28 -5z m102 -37 c-3 -35 -6 -38 -35 -41 -32 -3 -33 -2 -33 37 0 40 1 41 36
41 35 0 35 -1 32 -37z m4145 30 c-7 -2 -19 -2 -25 0 -7 3 -2 5 12 5 14 0 19
-2 13 -5z m-665 -142 c10 -6 4 -10 -18 -15 -46 -9 -80 -8 -80 3 0 19 73 28 98
12z m34 -60 c18 1 44 1 58 0 23 -2 24 -3 5 -11 -15 -6 -4 -9 40 -11 86 -3
-261 -16 -595 -21 -157 -3 -246 -3 -197 -1 48 2 87 7 87 11 0 4 30 8 68 9 37
2 98 8 136 14 38 6 90 9 115 5 31 -4 41 -3 31 4 -10 6 19 10 90 12 58 2 110
-1 117 -5 7 -5 27 -8 45 -6z m156 -8 c-10 -2 -28 -2 -40 0 -13 2 -5 4 17 4 22
1 32 -1 23 -4z m-1525 -30 c-7 -2 -19 -2 -25 0 -7 3 -2 5 12 5 14 0 19 -2 13
-5z m240 0 c-7 -2 -19 -2 -25 0 -7 3 -2 5 12 5 14 0 19 -2 13 -5z m120 0 c-7
-2 -19 -2 -25 0 -7 3 -2 5 12 5 14 0 19 -2 13 -5z m-220 -10 c-18 -2 -48 -2
-65 0 -18 2 -4 4 32 4 36 0 50 -2 33 -4z m-180 -10 c-7 -2 -19 -2 -25 0 -7 3
-2 5 12 5 14 0 19 -2 13 -5z m430 0 c-13 -2 -33 -2 -45 0 -13 2 -3 4 22 4 25
0 35 -2 23 -4z m90 0 c-7 -2 -19 -2 -25 0 -7 3 -2 5 12 5 14 0 19 -2 13 -5z
m-754 -134 c11 -32 0 -44 -34 -37 -22 4 -50 52 -42 71 10 26 63 2 76 -34z
m-189 20 c0 -27 -31 -79 -47 -79 -16 0 -16 5 -3 31 7 13 7 19 0 19 -5 0 -10
11 -10 25 0 21 5 25 30 25 24 0 30 -4 30 -21z m100 1 c0 -11 -6 -29 -12 -40
-11 -17 -9 -22 12 -37 14 -9 42 -34 64 -55 34 -33 38 -42 32 -71 -11 -57 -86
-95 -86 -43 0 13 7 26 15 30 27 10 16 30 -42 82 -46 41 -56 56 -56 82 0 17 8
41 18 52 24 26 55 26 55 0z m-372 -26 c-3 -15 -12 -19 -41 -19 -36 0 -37 -1
-37 -35 0 -35 1 -36 34 -32 24 3 35 -1 40 -13 9 -25 -2 -35 -40 -35 -33 0 -34
-1 -34 -38 l0 -38 40 4 c37 4 40 2 40 -22 0 -23 -4 -26 -32 -26 -18 0 -50 -3
-70 -6 l-38 -7 0 146 0 146 63 3 c69 3 81 -1 75 -28z m168 14 c23 -18 25 -26
20 -62 -7 -48 -7 -51 0 -133 5 -59 4 -63 -15 -63 -12 0 -24 -1 -28 -2 -5 -2
-10 21 -13 51 -4 44 -9 55 -27 62 -22 8 -23 7 -23 -56 l0 -65 -30 0 -30 0 0
144 0 145 60 0 c45 -1 66 -6 86 -21z m2797 15 c-13 -2 -33 -2 -45 0 -13 2 -3
4 22 4 25 0 35 -2 23 -4z m-3245 -66 c3 -53 5 -57 27 -57 22 0 24 4 27 58 3
54 4 57 31 60 l27 3 0 -145 0 -146 -30 0 c-30 0 -30 0 -30 59 0 54 -2 59 -25
63 -23 5 -24 3 -27 -61 -3 -64 -4 -66 -30 -69 l-28 -3 0 145 c0 129 2 145 18
149 32 8 37 1 40 -56z m-378 23 c0 -16 -4 -30 -10 -30 -6 0 -10 -38 -10 -94 0
-53 4 -98 10 -101 15 -9 12 -55 -4 -55 -7 0 -25 9 -40 21 -25 20 -26 24 -26
125 0 112 8 140 43 154 34 14 37 12 37 -20z m74 9 c25 -20 26 -24 26 -124 0
-94 -2 -106 -22 -129 -13 -13 -33 -27 -45 -31 -19 -5 -23 -3 -23 18 0 14 7 30
15 37 11 9 15 35 15 102 0 70 -3 90 -15 94 -8 4 -15 17 -15 30 0 30 27 32 64
3z m224 -1 c-3 -22 -8 -23 -90 -26 l-88 -3 0 26 c0 25 0 25 91 25 88 0 90 -1
87 -22z m-518 -142 l0 -144 -30 -4 -30 -5 0 148 c0 145 0 148 23 151 12 2 25
2 30 0 4 -2 7 -68 7 -146z m103 122 c20 -24 23 -81 3 -100 -11 -12 -11 -17 0
-33 8 -11 14 -43 14 -77 0 -58 0 -58 -30 -58 -29 0 -30 2 -30 44 0 57 -8 76
-31 76 -14 0 -19 7 -19 30 0 23 5 30 19 30 21 0 33 22 25 45 -4 8 -15 15 -25
15 -15 0 -19 7 -19 31 0 31 1 31 38 25 20 -4 45 -16 55 -28z m-211 -7 c21 -28
23 -69 4 -97 -12 -17 -12 -22 0 -39 20 -26 17 -79 -4 -105 -15 -18 -33 -24
-91 -29 -39 -4 -74 -5 -76 -2 -8 7 -6 287 2 294 3 4 38 5 76 4 59 -3 73 -7 89
-26z m-376 -6 c19 -29 13 -65 -16 -102 l-18 -24 -16 23 c-10 15 -12 26 -6 32
16 16 12 56 -5 56 -51 0 -12 -92 71 -170 53 -50 54 -52 40 -78 l-15 -27 -64
65 c-35 36 -63 63 -61 61 2 -2 -1 -10 -7 -17 -17 -21 8 -57 35 -50 16 4 29 -1
41 -14 17 -19 17 -20 -19 -35 -53 -22 -101 -6 -116 39 -11 34 -7 55 18 94 12
19 17 20 30 10 9 -7 6 1 -7 18 -29 39 -32 96 -6 124 28 31 99 28 121 -5z
m-306 -140 l0 -155 -35 0 -35 0 0 148 c0 82 3 152 7 155 3 4 19 7 35 7 l28 0
0 -155z m-1037 138 c-7 -2 -19 -2 -25 0 -7 3 -2 5 12 5 14 0 19 -2 13 -5z
m827 -79 c31 -66 40 -98 40 -137 l-1 -52 -34 65 -34 65 -1 -82 0 -83 -35 0
-35 0 0 155 0 155 30 0 c29 0 33 -5 70 -86z m110 -69 l0 -155 -30 0 -30 0 0
155 0 155 30 0 30 0 0 -155z m-472 -17 l3 -158 -36 0 -35 0 -1 88 -1 87 -27
-85 c-21 -68 -30 -85 -46 -85 -29 0 -65 126 -65 228 0 42 4 77 9 77 11 0 13
-6 37 -113 10 -43 21 -72 25 -65 4 7 15 49 24 93 10 44 19 82 21 85 1 3 22 6
46 5 l43 0 3 -157z m211 16 c35 -153 34 -169 -10 -162 -16 2 -25 12 -31 34 -7
27 -12 31 -33 26 -21 -4 -25 0 -26 19 -1 14 -6 3 -13 -25 -10 -42 -16 -51 -41
-58 -16 -4 -31 -5 -34 -3 -4 5 57 292 66 308 2 4 23 7 47 7 l43 0 32 -146z
m1611 31 l0 -115 -32 0 -33 0 3 115 3 115 30 0 29 0 0 -115z m-2040 -55 l0
-160 -30 0 -30 0 0 160 0 160 30 0 30 0 0 -160z m-977 143 c-7 -2 -19 -2 -25
0 -7 3 -2 5 12 5 14 0 19 -2 13 -5z m583 -3 c47 -18 53 -36 54 -152 0 -97 -2
-109 -22 -132 -15 -17 -38 -28 -65 -32 -42 -6 -43 -6 -43 23 0 26 5 31 30 37
l30 6 0 89 c0 76 -3 92 -17 99 -10 5 -24 7 -30 5 -9 -3 -13 7 -13 31 0 31 3
36 24 36 14 0 37 -5 52 -10z m274 -132 c18 -79 35 -149 38 -155 3 -9 -8 -13
-36 -13 -37 0 -41 3 -44 28 -3 23 -8 27 -40 30 -32 3 -38 0 -38 -17 0 -39 -11
-51 -47 -51 -25 0 -34 4 -30 13 3 7 20 79 38 160 l32 147 47 0 47 0 33 -142z
m-1093 126 c-3 -3 -12 -4 -19 -1 -8 3 -5 6 6 6 11 1 17 -2 13 -5z m733 -154
l0 -160 -35 0 -35 0 0 160 0 160 35 0 35 0 0 -160z m4713 153 c-7 -2 -19 -2
-25 0 -7 3 -2 5 12 5 14 0 19 -2 13 -5z m120 0 c-7 -2 -19 -2 -25 0 -7 3 -2 5
12 5 14 0 19 -2 13 -5z m-5313 -27 c0 -14 -4 -28 -10 -31 -6 -4 -10 -53 -10
-116 0 -66 4 -109 10 -109 6 0 10 -13 10 -30 0 -33 -5 -35 -46 -20 -48 18 -53
36 -54 161 0 119 5 135 45 157 34 19 55 14 55 -12z m99 -2 c18 -23 21 -40 21
-138 0 -90 -4 -115 -18 -133 -17 -23 -75 -46 -86 -35 -13 12 -5 48 14 60 18
11 20 23 20 107 0 84 -2 96 -20 107 -11 7 -20 23 -20 35 0 35 61 32 89 -3z
m131 -134 l0 -160 -35 0 -35 0 0 160 0 160 35 0 35 0 0 -160z m120 140 c18
-18 20 -33 20 -133 0 -107 -1 -115 -24 -136 -13 -13 -42 -25 -65 -28 -40 -6
-41 -5 -41 25 0 26 4 31 28 34 27 3 27 3 30 91 3 93 -5 117 -39 117 -14 0 -19
7 -19 25 0 23 4 25 45 25 32 0 51 -6 65 -20z m-1273 4 c-3 -3 -12 -4 -19 -1
-8 3 -5 6 6 6 11 1 17 -2 13 -5z m71 -1 c-10 -2 -28 -2 -40 0 -13 2 -5 4 17 4
22 1 32 -1 23 -4z m691 -17 c19 -17 21 -30 21 -132 0 -62 -3 -120 -6 -129 -10
-26 -54 -42 -136 -50 l-78 -7 0 166 0 165 33 3 c84 9 145 3 166 -16z m5730 11
c13 4 13 2 -2 -7 -9 -6 -54 -13 -100 -15 -45 -2 -97 -6 -114 -10 -27 -6 -33
-4 -33 10 0 14 7 16 43 11 32 -4 37 -3 22 4 -17 8 -15 9 10 5 17 -3 44 -1 60
3 17 5 45 5 64 1 18 -4 41 -5 50 -2z m-6381 -14 c-16 -2 -40 -2 -55 0 -16 2
-3 4 27 4 30 0 43 -2 28 -4z m-280 -10 c-10 -2 -26 -2 -35 0 -10 3 -2 5 17 5
19 0 27 -2 18 -5z m4863 -45 c23 -28 25 -68 4 -68 -23 0 -65 46 -65 70 0 28
36 26 61 -2z m-1647 4 c2 -4 -2 -23 -10 -42 l-15 -34 -20 21 c-17 17 -19 24
-10 42 11 20 45 29 55 13z m3511 -31 c41 -7 29 -9 -68 -10 -103 -1 -123 -4
-148 -22 -21 -15 -38 -19 -56 -14 -14 3 -92 6 -172 7 -84 0 -138 4 -126 9 11
4 46 8 78 8 77 1 73 21 -5 23 -62 2 -62 2 22 9 98 8 401 1 475 -10z m223 2
c-10 -2 -28 -2 -40 0 -13 2 -5 4 17 4 22 1 32 -1 23 -4z m-345 -30 c-7 -2 -19
-2 -25 0 -7 3 -2 5 12 5 14 0 19 -2 13 -5z m-1913 -103 c0 -16 -4 -30 -10 -30
-5 0 -10 14 -10 30 0 17 5 30 10 30 6 0 10 -13 10 -30z m-825 -33 c10 -8 15
-19 11 -26 -6 -9 -13 -8 -27 5 -17 15 -21 16 -34 3 -25 -26 -28 -63 -7 -90 20
-24 20 -24 41 -5 12 11 24 16 29 12 11 -11 -37 -46 -63 -46 -27 0 -65 43 -65
72 0 25 26 75 42 81 24 10 54 7 73 -6z m-465 -32 c0 -19 -4 -35 -10 -35 -11 0
-14 53 -3 63 11 12 13 8 13 -28z m238 -5 c4 -39 21 -66 23 -34 1 10 5 -1 9
-26 4 -25 6 -46 5 -48 -9 -11 -89 -11 -101 -1 -18 15 -18 53 1 69 9 8 13 21 9
32 -7 23 13 50 35 46 10 -2 17 -16 19 -38z m917 24 c36 -36 -1 -114 -42 -88
-35 22 -21 104 17 104 5 0 16 -7 25 -16z m95 1 c7 -8 10 -22 6 -31 -3 -8 -1
-24 4 -35 9 -16 7 -19 -10 -19 -11 0 -20 6 -21 13 0 10 -2 10 -6 0 -2 -7 -11
-13 -19 -13 -10 0 -14 13 -14 43 0 24 3 47 7 50 11 12 40 8 53 -8z m98 2 c-15
-12 -15 -14 2 -25 12 -7 16 -18 13 -31 -6 -24 -41 -37 -56 -22 -8 8 -6 11 6
11 21 0 22 19 2 26 -15 6 -20 35 -8 47 3 4 18 7 32 7 23 -1 24 -2 9 -13z
m-351 -13 c2 -7 -4 -11 -14 -10 -13 1 -19 -7 -21 -31 -2 -24 1 -33 12 -33 8 0
17 6 20 13 3 6 5 3 3 -8 -3 -23 -32 -32 -52 -15 -20 17 -19 65 1 85 18 17 45
17 51 -1z m83 6 c0 -5 -4 -10 -10 -10 -5 0 -10 -18 -10 -40 0 -29 -4 -40 -15
-40 -11 0 -15 11 -15 40 0 22 -4 40 -10 40 -5 0 -10 5 -10 10 0 6 16 10 35 10
19 0 35 -4 35 -10z m-253 -39 c-3 -15 -2 -33 3 -41 7 -11 11 -9 18 10 5 14 11
34 13 44 6 30 28 31 39 1 21 -56 23 -75 6 -75 -9 0 -16 5 -16 10 0 6 -7 10
-15 10 -8 0 -15 -4 -15 -10 0 -5 -13 -10 -30 -10 -22 0 -30 5 -31 18 0 13 -2
12 -9 -5 -16 -39 -30 -26 -30 26 0 52 11 63 53 53 15 -4 18 -11 14 -31z m2223
23 c0 -15 10 -16 80 -11 47 3 80 1 80 -4 0 -17 -20 -18 -280 -23 -140 -3 -268
-7 -285 -9 -16 -2 -22 -2 -12 0 9 2 17 8 17 13 0 5 35 9 78 9 42 0 124 4 182
10 97 9 90 9 -90 6 -197 -3 -196 0 5 14 192 14 225 13 225 -5z m-3450 -8 c0
-8 -5 -18 -11 -22 -14 -8 -33 11 -25 25 10 16 36 13 36 -3z m971 -22 c13 -35
-5 -74 -34 -74 -31 0 -47 18 -47 51 0 31 33 61 57 52 8 -3 19 -16 24 -29z m55
21 c6 -14 8 -13 20 2 12 16 13 11 14 -39 0 -32 -3 -58 -8 -58 -4 0 -15 12 -24
28 l-17 27 -1 -28 c0 -16 -4 -26 -10 -22 -11 7 -14 88 -3 98 11 11 23 8 29 -8z
m116 3 c-7 -7 -12 -29 -12 -51 0 -31 -3 -38 -17 -35 -13 3 -18 13 -18 41 0 23
-5 37 -12 37 -7 0 -13 5 -13 10 0 6 19 10 42 10 33 0 39 -3 30 -12z m1861 -5
c-7 -2 -19 -2 -25 0 -7 3 -2 5 12 5 14 0 19 -2 13 -5z m-3523 -29 c0 -8 -7
-14 -15 -14 -15 0 -21 21 -9 33 10 9 24 -2 24 -19z m60 -43 c0 -39 5 -73 10
-76 18 -11 10 -26 -12 -23 -21 3 -23 9 -26 86 -2 68 0 82 13 82 12 0 15 -14
15 -69z m200 60 c0 -5 -11 -12 -25 -15 -17 -4 -25 -13 -25 -27 0 -16 5 -20 20
-16 13 3 20 0 20 -9 0 -8 -9 -14 -20 -14 -13 0 -20 -7 -20 -20 0 -15 7 -20 26
-20 16 0 24 -5 22 -12 -3 -8 -22 -13 -49 -13 l-44 0 -3 64 c-2 35 -1 70 2 77
6 16 96 20 96 5z m-414 -12 c10 -17 -13 -36 -27 -22 -12 12 -4 33 11 33 5 0
12 -5 16 -11z m1144 2 c0 -5 -6 -12 -12 -15 -9 -3 -8 -8 5 -16 23 -15 22 -47
-2 -60 -25 -13 -41 -13 -41 0 0 6 7 10 15 10 21 0 19 13 -5 28 -24 15 -25 25
-4 46 17 17 44 21 44 7z m-1219 -11 c10 -6 19 -17 19 -25 0 -19 -14 -19 -30 0
-16 19 -25 19 -44 -1 -21 -20 -21 -78 0 -98 16 -16 26 -14 56 11 10 9 18 10
22 4 9 -14 -42 -51 -71 -51 -13 0 -35 11 -48 25 -35 34 -33 78 4 116 31 30 59
36 92 19z m1019 0 c0 -5 -7 -10 -15 -10 -21 0 -19 -30 3 -30 16 -1 16 -1 0
-14 -22 -16 -23 -26 -3 -26 8 0 15 -4 15 -10 0 -17 -57 -12 -64 6 -12 31 -6
73 12 83 22 13 52 14 52 1z m94 -6 c4 -9 2 -22 -3 -28 -6 -7 -6 -17 -1 -26 14
-21 12 -30 -5 -30 -9 0 -20 10 -25 23 l-9 22 0 -22 c-1 -14 -7 -23 -16 -23
-11 0 -15 12 -15 50 l0 50 34 0 c22 0 36 -6 40 -16z m-301 -16 l16 -23 0 25
c1 17 4 21 12 13 13 -13 8 -95 -6 -100 -6 -2 -18 9 -27 24 l-17 28 -1 -27 c0
-16 -4 -28 -10 -28 -5 0 -10 22 -10 48 0 67 15 80 43 40z m117 12 c0 -5 -7
-10 -15 -10 -8 0 -15 -4 -15 -10 0 -5 7 -10 15 -10 8 0 15 -4 15 -10 0 -5 -7
-10 -15 -10 -8 0 -15 -4 -15 -10 0 -5 6 -10 14 -10 8 0 18 -4 21 -10 4 -6 -8
-10 -29 -10 -36 0 -36 0 -36 43 0 24 3 47 7 50 10 11 53 8 53 -3z m2743 3 c-7
-2 -19 -2 -25 0 -7 3 -2 5 12 5 14 0 19 -2 13 -5z m-4263 -83 c0 -57 4 -80 13
-80 8 0 8 -3 -2 -9 -9 -6 -22 -6 -33 0 -15 8 -18 23 -18 89 0 73 2 80 20 80
18 0 20 -7 20 -80z m160 65 c0 -8 -9 -15 -20 -15 -11 0 -20 7 -20 15 0 8 9 15
20 15 11 0 20 -7 20 -15z m997 -17 c-3 12 -1 22 4 22 5 0 9 -22 9 -50 0 -55
-9 -62 -33 -27 l-16 22 0 -22 c-2 -46 -21 -21 -21 25 0 62 9 70 38 35 22 -26
24 -26 19 -5z m118 21 c10 -16 -3 -23 -18 -11 -19 16 -27 5 -27 -35 0 -36 19
-45 27 -13 3 11 12 20 20 20 11 0 13 -11 11 -47 -3 -46 -28 -76 -28 -34 0 16
-6 21 -25 21 -42 0 -60 57 -28 92 18 20 58 24 68 7z m65 -39 c0 -38 -4 -50
-15 -50 -11 0 -15 12 -15 50 0 38 4 50 15 50 11 0 15 -12 15 -50z m3515 19
c-56 -3 -132 -10 -170 -15 l-70 -8 45 -7 45 -6 -46 -1 c-31 -1 -51 3 -59 13
-7 9 -11 17 -9 19 8 7 275 21 319 16 34 -3 19 -6 -55 -11z m-4035 -44 c0 -42
-3 -55 -15 -55 -12 0 -15 13 -15 55 0 42 3 55 15 55 12 0 15 -13 15 -55z
m-1329 26 c30 -24 18 -39 -17 -21 -36 20 -58 3 -62 -47 -2 -27 2 -46 13 -57
21 -21 30 -20 54 5 14 15 21 17 27 8 11 -18 -33 -49 -69 -49 -93 0 -107 140
-17 173 28 10 48 7 71 -12z m1179 -36 c0 -48 -2 -55 -20 -55 -17 0 -20 7 -20
48 0 51 5 62 27 62 9 0 13 -16 13 -55z m56 18 l8 -38 9 38 c11 46 32 51 22 5
-22 -100 -50 -104 -72 -10 -10 38 -9 42 8 42 13 0 20 -10 25 -37z m-365 16
c11 -5 17 -14 13 -20 -4 -6 -11 -6 -21 2 -19 16 -34 -5 -31 -40 4 -31 28 -40
35 -12 3 12 12 21 20 21 11 0 13 -11 11 -47 -3 -46 -28 -76 -28 -34 0 15 -6
21 -24 21 -49 0 -67 69 -26 102 26 21 26 21 51 7z m4142 4 c-7 -2 -19 -2 -25
0 -7 3 -2 5 12 5 14 0 19 -2 13 -5z m395 0 c-10 -2 -26 -2 -35 0 -10 3 -2 5
17 5 19 0 27 -2 18 -5z m-4666 -30 l17 -28 1 28 c0 16 4 26 10 22 12 -8 13
-85 1 -104 -7 -10 -15 -4 -35 25 l-26 39 0 -33 c0 -17 -3 -32 -7 -32 -5 0 -6
25 -5 55 4 62 18 70 44 28z m-122 7 c0 -5 -7 -10 -15 -10 -11 0 -15 -12 -15
-45 0 -33 -4 -45 -15 -45 -11 0 -15 12 -15 45 0 34 -4 45 -16 45 -8 0 -12 5
-9 10 3 6 24 10 46 10 21 0 39 -4 39 -10z m50 -45 c0 -48 -2 -55 -20 -55 -18
0 -20 7 -20 55 0 48 2 55 20 55 18 0 20 -7 20 -55z m-356 20 c-17 -12 -16 -13
4 -19 28 -9 30 -51 3 -66 -25 -13 -51 -13 -51 0 0 6 9 10 20 10 28 0 25 15 -6
29 -31 14 -29 41 6 58 29 15 48 6 24 -12z m84 -23 c4 -54 27 -52 28 3 0 21 6
41 12 43 8 2 12 -9 12 -33 0 -63 -31 -96 -71 -75 -27 15 -29 113 -1 108 12 -2
18 -15 20 -46z m-278 18 c54 -54 -15 -135 -72 -83 -10 9 -18 27 -18 40 0 26
32 63 55 63 8 0 24 -9 35 -20z m84 -2 l16 -22 0 22 c0 12 5 22 10 22 6 0 10
-25 10 -55 0 -30 -4 -55 -9 -55 -5 0 -19 12 -30 28 l-20 27 -1 -27 c0 -16 -4
-28 -10 -28 -11 0 -14 93 -3 103 11 12 21 8 37 -15z m5246 -2 c6 -8 21 -17 33
-19 18 -3 16 -5 -6 -6 -16 0 -36 -5 -45 -10 -10 -5 -103 -12 -207 -15 -131 -3
-178 -2 -152 4 21 6 45 17 53 25 10 10 37 15 77 16 34 1 91 5 127 9 102 11
107 11 120 -4z m47 8 c-3 -3 -12 -4 -19 -1 -8 3 -5 6 6 6 11 1 17 -2 13 -5z
m286 -11 c-7 -2 -21 -2 -30 0 -10 3 -4 5 12 5 17 0 24 -2 18 -5z m-765 -50
c-10 -2 -28 -2 -40 0 -13 2 -5 4 17 4 22 1 32 -1 23 -4z m-175 -10 c-13 -2
-35 -2 -50 0 -16 2 -5 4 22 4 28 0 40 -2 28 -4z m286 -13 c-9 -5 -77 -12 -150
-14 l-134 -4 100 12 c127 17 206 19 184 6z m746 0 c-3 -5 -13 -10 -21 -10 -8
0 -14 5 -14 10 0 6 9 10 21 10 11 0 17 -4 14 -10z m-1268 -46 c-3 -3 -12 -4
-19 -1 -8 3 -5 6 6 6 11 1 17 -2 13 -5z m826 -80 c-10 -7 -40 -13 -68 -13
l-50 1 43 11 c24 7 54 13 68 13 23 2 24 1 7 -12z m186 -50 c2 -2 -14 -4 -37
-4 -23 0 -42 -4 -42 -10 0 -5 5 -10 12 -10 7 0 8 -3 3 -9 -14 -12 -120 -31
-172 -31 -24 0 -42 -3 -40 -7 3 -5 -25 -7 -61 -7 -58 2 -61 1 -27 -6 30 -6 23
-7 -30 -4 -38 2 -131 -1 -205 -7 -151 -12 -297 -18 -262 -12 12 2 22 11 22 19
0 8 9 14 21 14 14 0 19 -5 16 -13 -4 -10 2 -13 19 -9 13 2 24 10 24 17 0 8 32
17 91 25 49 7 85 16 79 20 -6 4 35 6 92 5 63 -2 91 0 73 5 -25 6 -21 8 30 11
33 2 78 4 100 4 22 1 48 5 58 9 10 5 50 6 90 3 46 -4 63 -3 47 3 -17 5 -5 6
35 3 33 -3 62 -7 64 -9z m1 -24 c0 -5 -9 -10 -19 -10 -11 0 -23 5 -26 10 -4 6
5 10 19 10 14 0 26 -4 26 -10z m113 3 c-7 -2 -19 -2 -25 0 -7 3 -2 5 12 5 14
0 19 -2 13 -5z m-1129 -94 c-27 -11 -44 -11 -44 0 0 11 40 20 54 12 5 -2 1 -8
-10 -12z m556 11 c-14 -4 -34 -8 -45 -8 -16 0 -15 2 5 8 14 4 34 8 45 8 16 0
15 -2 -5 -8z m257 4 c-3 -3 -12 -4 -19 -1 -8 3 -5 6 6 6 11 1 17 -2 13 -5z
m-927 -14 c0 -5 -4 -10 -10 -10 -5 0 -10 5 -10 10 0 6 5 10 10 10 6 0 10 -4
10 -10z m-317 -7 c-7 -2 -19 -2 -25 0 -7 3 -2 5 12 5 14 0 19 -2 13 -5z m-120
-10 c-7 -2 -21 -2 -30 0 -10 3 -4 5 12 5 17 0 24 -2 18 -5z m1060 -30 c-7 -2
-19 -2 -25 0 -7 3 -2 5 12 5 14 0 19 -2 13 -5z m320 0 c-18 -2 -48 -2 -65 0
-18 2 -4 4 32 4 36 0 50 -2 33 -4z m-390 -10 c-13 -2 -35 -2 -50 0 -16 2 -5 4
22 4 28 0 40 -2 28 -4z m448 -47 c-15 -18 -311 -55 -311 -39 0 5 -19 6 -42 4
-42 -5 -42 -5 -13 -12 19 -6 14 -6 -15 -2 -25 4 -83 6 -130 6 l-85 -1 80 9
c44 5 94 11 110 14 121 19 254 33 329 34 74 1 87 -1 77 -13z m802 -103 c-7 -2
-19 -2 -25 0 -7 3 -2 5 12 5 14 0 19 -2 13 -5z m-968 -163 c-16 -4 -39 -8 -50
-8 -16 0 -15 2 5 8 14 4 36 8 50 8 22 0 22 -1 -5 -8z m-107 -7 c-16 -2 -40 -2
-55 0 -16 2 -3 4 27 4 30 0 43 -2 28 -4z m267 -14 c52 -3 -36 -17 -105 -17
l-75 0 54 9 c30 5 57 12 60 15 3 3 15 3 26 0 11 -3 29 -6 40 -7z m428 -36 c-7
-2 -19 -2 -25 0 -7 3 -2 5 12 5 14 0 19 -2 13 -5z m145 -30 c-10 -2 -26 -2
-35 0 -10 3 -2 5 17 5 19 0 27 -2 18 -5z m-733 -23 c-27 -7 -24 -8 20 -10 44
-2 38 -4 -45 -16 -117 -16 -143 -17 -135 -4 3 6 25 11 48 11 l42 2 -35 7 -35
7 35 5 c19 2 58 5 85 5 42 1 45 -1 20 -7z m205 0 c-62 -12 -139 -12 -121 -1 7
5 48 9 90 9 69 0 72 -1 31 -8z m-387 -17 c-7 -2 -19 -2 -25 0 -7 3 -2 5 12 5
14 0 19 -2 13 -5z m312 -200 c-11 -2 -35 -8 -54 -13 -19 -5 -30 -5 -25 -1 11
11 41 19 74 19 19 0 20 -1 5 -5z m93 -80 c-15 -2 -42 -2 -60 0 -18 2 -6 4 27
4 33 0 48 -2 33 -4z m-153 -14 c-16 -5 -64 -11 -105 -14 l-75 -4 75 9 c41 6
79 12 85 14 5 3 19 4 30 4 13 0 9 -3 -10 -9z m702 -135 c-3 -3 -12 -4 -19 -1
-8 3 -5 6 6 6 11 1 17 -2 13 -5z m-124 -191 c-7 -2 -19 -2 -25 0 -7 3 -2 5 12
5 14 0 19 -2 13 -5z"/>
<path d="M5280 4237 l0 -136 33 -5 c17 -3 56 -8 85 -11 l52 -6 0 119 0 118
-72 23 c-40 13 -79 26 -85 28 -10 4 -13 -26 -13 -130z"/>
<path d="M5130 3831 l0 -141 105 0 c163 0 215 33 215 136 0 112 -34 136 -202
142 l-118 4 0 -141z"/>
<path d="M6030 3926 c0 -33 1 -33 53 -40 66 -8 161 -8 181 0 10 4 16 18 16 40
l0 34 -125 0 -125 0 0 -34z"/>
<path d="M6030 3725 l0 -45 124 0 c116 0 125 1 131 20 14 45 -1 57 -82 64 -42
3 -98 6 -125 6 l-48 0 0 -45z"/>
<path d="M9038 2873 c7 -3 16 -2 19 1 4 3 -2 6 -13 5 -11 0 -14 -3 -6 -6z"/>
<path d="M7180 2634 c0 -28 4 -35 16 -32 40 8 44 68 4 68 -16 0 -20 -6 -20
-36z"/>
<path d="M6010 2595 c0 -32 3 -36 23 -33 17 2 22 10 22 33 0 23 -5 31 -22 33
-20 3 -23 -1 -23 -33z"/>
<path d="M6010 2469 c0 -32 4 -39 20 -39 22 0 43 31 34 53 -3 8 -16 17 -30 20
-22 4 -24 1 -24 -34z"/>
<path d="M4986 2533 c-3 -10 -8 -35 -11 -55 -6 -34 -5 -36 14 -31 20 5 21 10
15 52 -8 54 -10 59 -18 34z"/>
<path d="M4438 2515 c-10 -17 -30 -126 -24 -132 3 -4 6 4 6 16 0 14 7 25 20
28 21 5 22 16 11 68 -3 17 -9 26 -13 20z"/>
<path d="M3400 2421 l0 -108 33 6 32 7 3 88 c3 95 -5 116 -44 116 -24 0 -24
-1 -24 -109z"/>
<path d="M8968 2483 c6 -2 18 -2 25 0 6 3 1 5 -13 5 -14 0 -19 -2 -12 -5z"/>
<path d="M8968 2453 c6 -2 18 -2 25 0 6 3 1 5 -13 5 -14 0 -19 -2 -12 -5z"/>
<path d="M6205 2290 c3 -5 8 -10 11 -10 2 0 4 5 4 10 0 6 -5 10 -11 10 -5 0
-7 -4 -4 -10z"/>
<path d="M6190 2212 c0 -14 6 -22 16 -22 14 0 15 3 3 18 -7 9 -15 19 -16 21
-2 2 -3 -5 -3 -17z"/>
<path d="M7110 2265 c0 -19 5 -35 10 -35 6 0 10 16 10 35 0 19 -4 35 -10 35
-5 0 -10 -16 -10 -35z"/>
<path d="M7211 2284 c0 -11 3 -14 6 -6 3 7 2 16 -1 19 -3 4 -6 -2 -5 -13z"/>
<path d="M6781 2264 c0 -11 3 -14 6 -6 3 7 2 16 -1 19 -3 4 -6 -2 -5 -13z"/>
<path d="M6861 2244 c0 -11 3 -14 6 -6 3 7 2 16 -1 19 -3 4 -6 -2 -5 -13z"/>
<path d="M6517 2263 c-11 -10 -8 -61 3 -68 6 -4 10 10 10 34 0 42 -2 46 -13
34z"/>
<path d="M5910 2214 c0 -8 5 -12 10 -9 6 3 10 10 10 16 0 5 -4 9 -10 9 -5 0
-10 -7 -10 -16z"/>
<path d="M3816 2123 c-3 -3 -6 -21 -6 -40 0 -23 5 -33 15 -33 10 0 15 10 15
34 0 34 -11 52 -24 39z"/>
<path d="M9138 1863 c12 -2 30 -2 40 0 9 3 -1 5 -23 4 -22 0 -30 -2 -17 -4z"/>
<path d="M8648 1783 c6 -2 18 -2 25 0 6 3 1 5 -13 5 -14 0 -19 -2 -12 -5z"/>
<path d="M10068 5013 c12 -2 30 -2 40 0 9 3 -1 5 -23 4 -22 0 -30 -2 -17 -4z"/>
<path d="M10081 4826 c2 -2 36 -6 74 -9 54 -4 61 -4 30 3 -40 9 -112 13 -104
6z"/>
<path d="M9988 4529 c20 -6 44 -6 65 0 28 8 24 9 -33 9 -57 0 -61 -1 -32 -9z"/>
<path d="M10173 4503 c9 -2 25 -2 35 0 9 3 1 5 -18 5 -19 0 -27 -2 -17 -5z"/>
<path d="M9923 4463 c-29 -3 -43 -9 -43 -19 0 -11 14 -14 60 -14 33 0 60 4 60
10 0 6 -10 11 -22 12 -13 0 -3 4 22 8 l45 7 -40 0 c-22 0 -59 -2 -82 -4z"/>
<path d="M10128 4433 c6 -2 18 -2 25 0 6 3 1 5 -13 5 -14 0 -19 -2 -12 -5z"/>
<path d="M9733 4363 c9 -2 25 -2 35 0 9 3 1 5 -18 5 -19 0 -27 -2 -17 -5z"/>
<path d="M9858 4283 c6 -2 18 -2 25 0 6 3 1 5 -13 5 -14 0 -19 -2 -12 -5z"/>
<path d="M10024 4249 c-3 -5 9 -9 25 -9 17 0 31 2 31 4 0 8 -51 13 -56 5z"/>
<path d="M9968 4243 c6 -2 18 -2 25 0 6 3 1 5 -13 5 -14 0 -19 -2 -12 -5z"/>
<path d="M9880 4159 c0 -5 37 -9 82 -9 45 0 79 2 77 4 -10 8 -159 14 -159 5z"/>
<path d="M10088 4153 c6 -2 18 -2 25 0 6 3 1 5 -13 5 -14 0 -19 -2 -12 -5z"/>
<path d="M10143 4093 c15 -2 39 -2 55 0 15 2 2 4 -28 4 -30 0 -43 -2 -27 -4z"/>
<path d="M9818 3653 c7 -3 16 -2 19 1 4 3 -2 6 -13 5 -11 0 -14 -3 -6 -6z"/>
<path d="M10000 3560 c0 -12 24 -12 60 0 21 7 19 8 -17 9 -24 1 -43 -3 -43 -9z"/>
<path d="M9928 3513 c6 -2 18 -2 25 0 6 3 1 5 -13 5 -14 0 -19 -2 -12 -5z"/>
<path d="M10088 3473 c6 -2 18 -2 25 0 6 3 1 5 -13 5 -14 0 -19 -2 -12 -5z"/>
<path d="M10128 3423 c6 -2 18 -2 25 0 6 3 1 5 -13 5 -14 0 -19 -2 -12 -5z"/>
<path d="M9648 3193 c6 -2 18 -2 25 0 6 3 1 5 -13 5 -14 0 -19 -2 -12 -5z"/>
<path d="M9773 2963 c9 -2 25 -2 35 0 9 3 1 5 -18 5 -19 0 -27 -2 -17 -5z"/>
<path d="M9970 2830 c-12 -8 -9 -10 12 -10 15 0 30 5 33 10 8 13 -25 13 -45 0z"/>
<path d="M10065 2830 c-3 -5 -2 -10 4 -10 5 0 13 5 16 10 3 6 2 10 -4 10 -5 0
-13 -4 -16 -10z"/>
<path d="M10040 2760 c0 -5 13 -10 29 -10 17 0 33 5 36 10 4 6 -8 10 -29 10
-20 0 -36 -4 -36 -10z"/>
<path d="M10128 2763 c6 -2 18 -2 25 0 6 3 1 5 -13 5 -14 0 -19 -2 -12 -5z"/>
<path d="M9838 2633 c7 -3 16 -2 19 1 4 3 -2 6 -13 5 -11 0 -14 -3 -6 -6z"/>
<path d="M10083 2543 c9 -2 23 -2 30 0 6 3 -1 5 -18 5 -16 0 -22 -2 -12 -5z"/>
<path d="M10013 2533 c9 -2 25 -2 35 0 9 3 1 5 -18 5 -19 0 -27 -2 -17 -5z"/>
<path d="M10168 2523 c6 -2 18 -2 25 0 6 3 1 5 -13 5 -14 0 -19 -2 -12 -5z"/>
<path d="M9978 2463 c12 -2 32 -2 45 0 12 2 2 4 -23 4 -25 0 -35 -2 -22 -4z"/>
<path d="M10048 2393 c6 -2 18 -2 25 0 6 3 1 5 -13 5 -14 0 -19 -2 -12 -5z"/>
<path d="M10168 2313 c6 -2 18 -2 25 0 6 3 1 5 -13 5 -14 0 -19 -2 -12 -5z"/>
<path d="M10088 2303 c6 -2 18 -2 25 0 6 3 1 5 -13 5 -14 0 -19 -2 -12 -5z"/>
<path d="M9893 2193 c9 -2 25 -2 35 0 9 3 1 5 -18 5 -19 0 -27 -2 -17 -5z"/>
<path d="M9868 2133 c7 -3 16 -2 19 1 4 3 -2 6 -13 5 -11 0 -14 -3 -6 -6z"/>
<path d="M9848 1743 c6 -2 18 -2 25 0 6 3 1 5 -13 5 -14 0 -19 -2 -12 -5z"/>
<path d="M10088 1573 c6 -2 18 -2 25 0 6 3 1 5 -13 5 -14 0 -19 -2 -12 -5z"/>
<path d="M9998 1373 c6 -2 18 -2 25 0 6 3 1 5 -13 5 -14 0 -19 -2 -12 -5z"/>
<path d="M10073 1323 c9 -2 23 -2 30 0 6 3 -1 5 -18 5 -16 0 -22 -2 -12 -5z"/>
<path d="M9878 1303 c7 -3 16 -2 19 1 4 3 -2 6 -13 5 -11 0 -14 -3 -6 -6z"/>
<path d="M10203 1283 c-18 -7 -16 -23 2 -23 8 0 15 7 15 15 0 8 -1 15 -2 14
-2 0 -9 -3 -15 -6z"/>
<path d="M10010 1090 c-8 -5 -10 -10 -5 -10 6 0 17 5 25 10 8 5 11 10 5 10 -5
0 -17 -5 -25 -10z"/>
<path d="M10198 883 c7 -3 16 -2 19 1 4 3 -2 6 -13 5 -11 0 -14 -3 -6 -6z"/>
<path d="M10118 873 c12 -2 30 -2 40 0 9 3 -1 5 -23 4 -22 0 -30 -2 -17 -4z"/>
</g>
</svg>
